<svg width="24" height="24" viewBox="0 0 24 24" fill="none" xmlns="http://www.w3.org/2000/svg">
<path d="M10.4676 6.44532C10.6056 6.38129 10.7597 6.36059 10.9097 6.38594C11.0596 6.41129 11.1984 6.48149 11.3077 6.5873L12.8491 8.23594L8.06524 12.4567C8.51308 12.5458 8.82967 12.693 9.10267 12.8204C9.46736 12.9906 9.75541 13.1251 10.3925 13.1251C11.0297 13.1251 11.3178 12.9906 11.6825 12.8204L11.6897 12.817C12.3943 12.4886 13.0481 12.0608 13.6311 11.5467L14.899 10.428L17.3787 13.0798C17.6683 13.0265 17.8737 12.9312 18.1111 12.8205C18.3654 12.6946 18.6307 12.5921 18.9036 12.5143L12.3932 5.55207L12.3757 5.53402C12.0486 5.20833 11.6295 4.99078 11.1749 4.9107C10.7202 4.83061 10.252 4.89184 9.83327 5.08613L6.80786 6.498L7.44217 7.85738L10.4676 6.44532Z" fill="#53A1D0"/>
<path d="M17.4375 7.875C18.3695 7.875 19.125 7.11948 19.125 6.1875C19.125 5.25552 18.3695 4.5 17.4375 4.5C16.5055 4.5 15.75 5.25552 15.75 6.1875C15.75 7.11948 16.5055 7.875 17.4375 7.875Z" fill="#53A1D0"/>
<path d="M20.0355 17.625C19.0656 17.625 18.5363 17.8719 18.1112 18.0703C17.7464 18.2405 17.4583 18.375 16.821 18.375C16.1838 18.375 15.8958 18.2405 15.531 18.0703C15.1058 17.8719 14.5767 17.625 13.6067 17.625C12.6368 17.625 12.1076 17.872 11.6825 18.0703C11.3177 18.2405 11.0297 18.375 10.3925 18.375C9.75534 18.375 9.46734 18.2405 9.10266 18.0703C8.6775 17.8719 8.14838 17.625 7.17844 17.625C6.2085 17.625 5.67933 17.872 5.25417 18.0703C4.88944 18.2405 4.60139 18.375 3.96422 18.375C3.32705 18.375 3.039 18.2405 2.67427 18.0703C2.24911 17.872 1.71994 17.625 0.75 17.625V19.125C1.38717 19.125 1.67522 19.2594 2.03995 19.4297C2.46511 19.628 2.99428 19.875 3.96422 19.875C4.93416 19.875 5.46333 19.628 5.88848 19.4297C6.25322 19.2595 6.54127 19.125 7.17844 19.125C7.81561 19.125 8.10361 19.2594 8.4683 19.4297C8.89345 19.628 9.42258 19.875 10.3925 19.875C11.3625 19.875 11.8916 19.628 12.3168 19.4297C12.6815 19.2595 12.9696 19.125 13.6067 19.125C14.2439 19.125 14.532 19.2594 14.8967 19.4297C15.3219 19.628 15.8511 19.875 16.821 19.875C17.791 19.875 18.3203 19.628 18.7455 19.4297C19.1102 19.2595 19.3983 19.125 20.0355 19.125C20.6728 19.125 20.9609 19.2594 21.3256 19.4297C21.7508 19.6281 22.28 19.875 23.25 19.875V18.375C22.6128 18.375 22.3246 18.2405 21.96 18.0703C21.5347 17.8719 21.0055 17.625 20.0355 17.625ZM23.1234 14.623C22.5731 14.6061 22.2996 14.4788 21.96 14.3203C21.5538 14.1308 21.0518 13.8975 20.1622 13.877C20.1205 13.8761 20.079 13.875 20.0356 13.875C19.9923 13.875 19.9507 13.8761 19.9091 13.877C19.0195 13.8975 18.5175 14.1308 18.1113 14.3203C17.7717 14.4788 17.4982 14.6063 16.9478 14.623C16.9071 14.6242 16.8651 14.625 16.8212 14.625C16.7774 14.625 16.7354 14.6242 16.6947 14.623C16.1443 14.6061 15.8708 14.4788 15.5313 14.3203C15.1251 14.1308 14.6231 13.8976 13.7336 13.877C13.6919 13.8761 13.6504 13.875 13.607 13.875C13.5636 13.875 13.5221 13.8761 13.4805 13.877C12.591 13.8975 12.0889 14.1308 11.6827 14.3203C11.3432 14.4788 11.0697 14.6063 10.5194 14.623C10.4787 14.6242 10.4367 14.625 10.3928 14.625C10.349 14.625 10.307 14.6242 10.2663 14.623C9.71602 14.6061 9.44255 14.4788 9.10303 14.3203C8.69691 14.1308 8.19487 13.8975 7.30542 13.877C7.27496 13.8762 7.24449 13.8756 7.21402 13.8754C7.20206 13.8754 7.19058 13.8749 7.17872 13.8749C7.13531 13.8749 7.09378 13.876 7.05216 13.8769C6.1627 13.8974 5.66062 14.1307 5.2545 14.3202C4.91489 14.4787 4.64147 14.6062 4.09116 14.6229C4.05042 14.6241 4.00847 14.6249 3.96459 14.6249C3.92072 14.6249 3.87877 14.6241 3.83803 14.6229C3.28734 14.6062 3.01406 14.4788 2.67427 14.3203C2.26814 14.1308 1.76611 13.8975 0.876609 13.8769C0.834938 13.876 0.793406 13.8749 0.750047 13.8749V15.3749C1.38722 15.3749 1.67527 15.5094 2.04 15.6796C2.46516 15.878 2.99433 16.1249 3.96427 16.1249C4.9342 16.1249 5.46338 15.8779 5.88853 15.6796C6.25327 15.5094 6.54131 15.3749 7.17848 15.3749C7.81566 15.3749 8.10366 15.5094 8.46834 15.6796C8.8935 15.878 9.42262 16.1249 10.3926 16.1249C11.3625 16.1249 11.8917 15.8779 12.3168 15.6796C12.6816 15.5094 12.9697 15.3749 13.6068 15.3749C14.2439 15.3749 14.532 15.5094 14.8968 15.6796C15.322 15.878 15.8511 16.1249 16.8211 16.1249C17.7911 16.1249 18.3203 15.878 18.7455 15.6796C19.1102 15.5094 19.3984 15.3749 20.0356 15.3749C20.6728 15.3749 20.961 15.5094 21.3256 15.6796C21.7509 15.878 22.2801 16.1249 23.25 16.1249V14.625C23.2061 14.625 23.1641 14.6242 23.1234 14.623Z" fill="#53A1D0"/>
</svg>
