<svg width="24" height="18" viewBox="0 0 24 18" fill="none" xmlns="http://www.w3.org/2000/svg">
<path d="M13 15.767H9C8.73478 15.767 8.48043 15.6915 8.29289 15.5571C8.10536 15.4227 8 15.2404 8 15.0503V10.6069H6C5.73478 10.6069 5.48043 10.5314 5.29289 10.397C5.10536 10.2626 5 10.0803 5 9.89022V7.31015C5 7.12007 5.10536 6.93778 5.29289 6.80338C5.48043 6.66897 5.73478 6.59347 6 6.59347H8V5.3751C8.0701 4.28313 8.74062 3.25547 9.86497 2.51681C10.9893 1.77816 12.476 1.38861 14 1.43334H17C17.2652 1.43334 17.5196 1.50885 17.7071 1.64325C17.8946 1.77765 18 1.95995 18 2.15002V4.73009C18 4.92016 17.8946 5.10246 17.7071 5.23686C17.5196 5.37126 17.2652 5.44677 17 5.44677H14V6.59347H17C17.1544 6.59263 17.307 6.61743 17.4458 6.66592C17.5846 6.71441 17.7058 6.78528 17.8 6.87297C17.8931 6.96198 17.9561 7.06531 17.9839 7.17478C18.0116 7.28425 18.0035 7.39685 17.96 7.50366L16.96 10.0837C16.8995 10.2387 16.768 10.3747 16.5866 10.4696C16.4052 10.5645 16.1844 10.6128 15.96 10.6069H14V15.0503C14 15.2404 13.8946 15.4227 13.7071 15.5571C13.5196 15.6915 13.2652 15.767 13 15.767V15.767ZM10 14.3337H12V9.89022C12 9.70014 12.1054 9.51785 12.2929 9.38344C12.4804 9.24904 12.7348 9.17353 13 9.17353H15.24L15.68 8.02684H13C12.7348 8.02684 12.4804 7.95133 12.2929 7.81692C12.1054 7.68252 12 7.50023 12 7.31015V5.3751C12.0257 5.00751 12.2477 4.66108 12.62 4.40758C12.9923 4.15408 13.4864 4.01294 14 4.0134H16V2.86671H14C13.0068 2.82334 12.0298 3.06238 11.281 3.53198C10.5321 4.00157 10.0719 4.66384 10 5.3751V7.31015C10 7.50023 9.89464 7.68252 9.70711 7.81692C9.51957 7.95133 9.26522 8.02684 9 8.02684H7V9.17353H9C9.26522 9.17353 9.51957 9.24904 9.70711 9.38344C9.89464 9.51785 10 9.70014 10 9.89022V14.3337Z" fill="white"/>
</svg>
