<svg width="24" height="24" viewBox="0 0 24 24" fill="none" xmlns="http://www.w3.org/2000/svg">
<path d="M2.99999 8.26348V8.24998C2.99997 6.91656 3.39488 5.61302 4.13489 4.5038C4.8749 3.39458 5.92686 2.52938 7.15805 2.01736C8.38924 1.50534 9.74449 1.36944 11.0528 1.62681C12.3612 1.88417 13.564 2.52327 14.5095 3.46348C15.2534 3.09629 16.0844 2.94191 16.9106 3.01739C17.7367 3.09286 18.526 3.39526 19.191 3.89116C19.8561 4.38707 20.3712 5.05718 20.6793 5.82746C20.9874 6.59773 21.0766 7.43819 20.937 8.25598C21.1422 8.27503 21.3414 8.33618 21.5219 8.43561C21.7025 8.53505 21.8606 8.67063 21.9865 8.8339C22.1123 8.99718 22.2031 9.18463 22.2533 9.38457C22.3034 9.58451 22.3119 9.79264 22.278 9.99598C21.6 14.0745 19.923 16.656 17.25 17.742V18.75C17.25 19.3467 17.0129 19.919 16.591 20.341C16.169 20.7629 15.5967 21 15 21H8.99999C8.40325 21 7.83096 20.7629 7.409 20.341C6.98704 19.919 6.74999 19.3467 6.74999 18.75V17.742C4.07699 16.656 2.39999 14.0745 1.72199 9.99598C1.68927 9.79804 1.69659 9.59556 1.74351 9.4005C1.79043 9.20544 1.876 9.02178 1.99516 8.86039C2.11432 8.69899 2.26465 8.56313 2.43724 8.46086C2.60984 8.35859 2.8012 8.29198 2.99999 8.26498V8.26348ZM4.49999 8.24998H5.99999C5.99999 7.25541 6.39508 6.30159 7.09834 5.59833C7.8016 4.89507 8.75543 4.49998 9.74999 4.49998C10.7446 4.49998 11.6984 4.89507 12.4016 5.59833C13.1049 6.30159 13.5 7.25541 13.5 8.24998H15C15 6.85759 14.4469 5.52223 13.4623 4.53767C12.4777 3.5531 11.1424 2.99998 9.74999 2.99998C8.3576 2.99998 7.02225 3.5531 6.03768 4.53767C5.05311 5.52223 4.49999 6.85759 4.49999 8.24998ZM7.49999 8.24998H12C12 7.65324 11.7629 7.08094 11.341 6.65899C10.919 6.23703 10.3467 5.99998 9.74999 5.99998C9.15325 5.99998 8.58096 6.23703 8.159 6.65899C7.73704 7.08094 7.49999 7.65324 7.49999 8.24998ZM17.799 8.24998H19.4055C19.5187 7.80668 19.5293 7.34339 19.4364 6.8954C19.3434 6.44741 19.1495 6.02655 18.8692 5.66488C18.589 5.3032 18.2299 5.01027 17.8193 4.8084C17.4088 4.60652 16.9575 4.50104 16.5 4.49998C16.14 4.49998 15.798 4.56298 15.48 4.67848C15.7455 5.10448 15.9645 5.56348 16.1325 6.04498C16.4182 5.97412 16.7184 5.98871 16.9959 6.08694C17.2734 6.18517 17.5159 6.36272 17.6934 6.59755C17.8709 6.83238 17.9755 7.11415 17.9942 7.40791C18.013 7.70166 17.9451 7.99446 17.799 8.24998ZM15.75 18H8.24999V18.75C8.24999 18.9489 8.32901 19.1397 8.46966 19.2803C8.61031 19.421 8.80108 19.5 8.99999 19.5H15C15.1989 19.5 15.3897 19.421 15.5303 19.2803C15.671 19.1397 15.75 18.9489 15.75 18.75V18ZM7.72199 16.5H16.278C18.657 15.735 20.163 13.572 20.799 9.74998H3.20099C3.83699 13.572 5.34299 15.735 7.72199 16.5Z" fill="#D30404"/>
</svg>
