<svg width="24" height="17" viewBox="0 0 24 17" fill="none" xmlns="http://www.w3.org/2000/svg">
<path d="M17.4 15.4065C13.3173 15.4028 9.40331 14.2654 6.5164 12.2437C3.62949 10.222 2.00529 7.48105 2 4.62195C2 3.76759 2.48464 2.94823 3.34731 2.34411C4.20998 1.73998 5.38 1.40059 6.6 1.40059C6.85834 1.39921 7.11625 1.41563 7.37 1.44961C7.61531 1.47503 7.85647 1.51725 8.09 1.57567C8.25425 1.61602 8.40061 1.68571 8.51461 1.77782C8.62861 1.86994 8.7063 1.9813 8.74 2.10089L10.11 6.30266C10.1469 6.41671 10.1425 6.53542 10.0971 6.64796C10.0516 6.7605 9.96671 6.86328 9.85 6.94693C9.72 7.04497 9.71 7.05197 8.48 7.50016C9.46499 9.0134 11.1932 10.2286 13.35 10.9246C14 10.0562 14.01 10.0492 14.15 9.95819C14.2694 9.87646 14.4162 9.81698 14.5769 9.78518C14.7376 9.75337 14.9071 9.75026 15.07 9.77612L21.07 10.7355C21.2353 10.7624 21.3881 10.8183 21.5141 10.8979C21.64 10.9775 21.735 11.0783 21.79 11.1907C21.8744 11.3569 21.938 11.528 21.98 11.7019C22.0202 11.8779 22.0403 12.0559 22.04 12.2342C22.0216 13.0849 21.5233 13.8959 20.654 14.4903C19.7847 15.0846 18.6149 15.414 17.4 15.4065V15.4065Z" fill="white"/>
</svg>
